<?xml version="1.0" standalone="no"?>
<!DOCTYPE svg PUBLIC "-//W3C//DTD SVG 20010904//EN"
 "http://www.w3.org/TR/2001/REC-SVG-20010904/DTD/svg10.dtd">
<svg version="1.0" xmlns="http://www.w3.org/2000/svg"
 width="302.000000pt" height="136.000000pt" viewBox="0 0 302.000000 136.000000"
 preserveAspectRatio="xMidYMid meet">

<g transform="translate(0.000000,136.000000) scale(0.100000,-0.100000)"
fill="#008bd0" stroke="none">
<path d="M2255 1225 c-131 -29 -270 -99 -408 -203 l-89 -67 71 -3 70 -3 88 67
c97 74 233 144 331 169 119 30 268 30 369 -1 10 -3 7 1 -7 9 -74 43 -300 60
-425 32z"/>
<path d="M2475 1120 c-119 -17 -290 -88 -365 -150 l-35 -29 50 0 c42 0 60 6
110 39 107 71 270 127 380 131 l40 1 -40 9 c-47 9 -72 9 -140 -1z"/>
<path d="M344 1089 c-90 -28 -146 -63 -207 -129 -227 -244 -139 -635 177 -790
128 -63 226 -84 371 -77 89 4 143 12 210 32 92 27 236 97 290 141 l30 24 -119
0 c-105 0 -127 -3 -184 -26 -138 -55 -303 -68 -434 -35 -242 62 -388 229 -388
444 0 201 120 357 325 423 30 10 34 13 15 13 -14 0 -53 -9 -86 -20z"/>
<path d="M383 1006 c-136 -64 -212 -214 -191 -378 14 -110 93 -218 193 -264
72 -34 83 -29 29 13 -65 49 -80 67 -117 143 -30 60 -32 73 -32 165 0 92 3 105
32 165 35 73 70 115 127 154 48 33 28 34 -41 2z"/>
<path d="M707 808 c-9 -7 -47 -65 -85 -128 -111 -187 -117 -199 -105 -211 18
-18 50 -1 56 29 10 49 37 72 93 78 l51 5 6 -52 c8 -63 30 -83 66 -60 10 7 11
13 1 31 -7 13 -15 80 -18 154 -6 162 -17 189 -65 154z m6 -125 l5 -73 -44 0
c-24 0 -44 3 -44 6 0 8 73 144 76 141 1 -1 4 -35 7 -74z"/>
<path d="M973 812 c-92 -2 -102 -5 -108 -23 -9 -28 -4 -30 35 -19 18 5 36 7
40 5 4 -3 -8 -71 -27 -152 -21 -93 -30 -150 -24 -156 5 -5 21 -7 35 -3 21 5
26 12 26 37 0 27 48 259 56 268 2 2 22 4 46 4 41 0 43 -1 41 -29 -1 -16 -14
-82 -29 -147 -17 -73 -24 -121 -18 -127 16 -16 54 0 54 23 0 42 24 137 35 137
6 0 22 -26 35 -57 43 -106 71 -131 114 -100 17 12 17 14 3 20 -17 6 -53 60
-75 109 -11 26 -9 29 19 43 50 27 69 52 69 93 0 27 -7 45 -21 58 -22 20 -70
23 -306 16z m258 -43 c40 -40 -8 -119 -73 -119 -28 0 -30 2 -24 26 4 15 9 40
12 58 3 17 7 37 10 44 6 19 52 14 75 -9z"/>
<path d="M1763 813 c-8 -2 -13 -22 -13 -44 0 -54 -41 -232 -52 -221 -4 4 -27
64 -50 132 -42 123 -44 125 -73 125 -29 0 -30 -2 -36 -50 -4 -27 -18 -94 -33
-148 -35 -133 -33 -158 11 -140 13 6 18 19 19 48 1 55 34 199 43 189 4 -5 23
-49 41 -99 55 -147 63 -159 97 -137 20 12 94 324 81 339 -11 14 -15 14 -35 6z"/>
<path d="M1955 806 c-45 -20 -103 -84 -120 -135 -8 -24 -15 -69 -15 -99 0 -46
4 -58 30 -84 29 -28 35 -30 86 -26 58 5 106 32 112 62 3 15 0 14 -30 -4 -43
-26 -90 -26 -114 1 -40 44 -6 215 50 254 37 27 85 13 98 -27 7 -19 38 9 38 33
0 37 -75 51 -135 25z"/>
<path d="M2224 801 c-86 -40 -146 -168 -124 -267 13 -56 43 -77 102 -72 64 7
109 43 147 119 40 80 43 164 9 204 -31 35 -81 41 -134 16z m78 -28 c39 -35 8
-204 -48 -260 -29 -29 -70 -30 -85 -1 -29 54 8 206 63 258 26 24 45 25 70 3z"/>
<path d="M2490 807 c-32 -11 -35 -15 -32 -50 2 -20 -9 -86 -23 -147 -15 -60
-24 -114 -21 -119 4 -5 23 -15 42 -21 94 -31 207 56 236 180 14 61 -1 123 -37
146 -32 21 -122 27 -165 11z m122 -44 c43 -38 24 -178 -32 -234 -30 -31 -94
-41 -102 -16 -3 6 5 57 18 112 13 55 23 112 24 127 0 38 52 45 92 11z"/>
<path d="M1405 804 c-6 -2 -9 -19 -7 -37 2 -19 -8 -82 -22 -141 -37 -153 -35
-174 18 -160 21 5 24 10 20 32 -3 15 9 88 25 162 17 74 31 138 31 142 0 8 -47
10 -65 2z"/>
<path d="M2769 794 c-10 -12 -10 -17 0 -23 12 -8 -1 -95 -29 -191 -5 -19 -10
-52 -10 -72 l0 -38 81 0 c44 0 89 5 100 10 23 13 26 45 3 36 -40 -15 -90 -17
-108 -3 -18 13 -19 20 -10 63 l9 49 45 3 c42 3 70 16 70 32 0 4 -23 5 -52 2
l-51 -5 6 39 c4 21 7 50 7 63 0 22 2 23 67 20 58 -4 68 -2 71 14 3 15 -6 17
-91 17 -74 0 -97 -3 -108 -16z"/>
<path d="M1416 301 c-11 -17 -174 -121 -255 -161 -46 -23 -113 -53 -150 -65
-85 -30 -45 -32 63 -4 102 27 265 103 373 175 45 30 83 57 83 60 0 8 -109 4
-114 -5z"/>
</g>
</svg>
