<?xml version="1.0" encoding="utf-8"?>
<!-- Generator: Adobe Illustrator 25.4.1, SVG Export Plug-In . SVG Version: 6.00 Build 0)  -->
<svg version="1.1" id="Layer_1" xmlns="http://www.w3.org/2000/svg" xmlns:xlink="http://www.w3.org/1999/xlink" x="0px" y="0px"
	 viewBox="0 0 147 36" style="enable-background:new 0 0 147 36;" xml:space="preserve">
<style type="text/css">
	.st0{display:none;}
	.st1{display:inline;fill-rule:evenodd;clip-rule:evenodd;fill:url(#SVGID_1_);}
	.st2{display:inline;fill:none;stroke:url(#SVGID_00000163050924798187523820000005985889450182140544_);stroke-width:4;}
	.st3{display:inline;fill:none;stroke:url(#SVGID_00000100356379356990694470000015413996180792054703_);stroke-width:4;}
</style>
<g class="st0">
	
		<linearGradient id="SVGID_1_" gradientUnits="userSpaceOnUse" x1="-221.3436" y1="421.3892" x2="-220.1931" y2="420.2365" gradientTransform="matrix(85 0 0 -23 18870 9699.4658)">
		<stop  offset="0" style="stop-color:#E35C67"/>
		<stop  offset="1" style="stop-color:#A293FF"/>
	</linearGradient>
	<path class="st1" d="M54,24.9V8.9h4.6L63.1,20l4.5-11.1h4.6v16.1h-3.9v-9.6l-3.6,9.6h-3.2l-3.6-9.7v9.7C57.9,24.9,54,24.9,54,24.9z
		 M80.6,15.1c-1.3,0-2.3,0.8-2.5,2.2H83C83,15.9,81.9,15.1,80.6,15.1z M86.7,20.7c-0.6,2.5-2.9,4.4-6.1,4.4c-3.8,0-6.5-2.5-6.5-6.6
		c0-4.1,2.7-6.6,6.5-6.6c3.7,0,6.4,2.5,6.4,6.4c0,0.4,0,0.8-0.1,1.1h-8.9c0.1,1.7,1.2,2.4,2.4,2.4c1.1,0,1.7-0.5,2-1.2
		C82.6,20.7,86.7,20.7,86.7,20.7z M89.1,24.9V8H93v16.9C93,24.9,89.1,24.9,89.1,24.9z M108.3,18.6c0,4.1-2.9,6.6-6.7,6.6
		s-6.6-2.5-6.6-6.6c0-4.1,2.9-6.6,6.6-6.6C105.5,12,108.3,14.5,108.3,18.6z M99.1,18.6c0,2.2,1.2,3.2,2.6,3.2c1.4,0,2.7-1,2.7-3.2
		c0-2.2-1.3-3.2-2.7-3.2C100.3,15.4,99.1,16.4,99.1,18.6z M109.6,18.5c0-4,2.5-6.5,5.6-6.5c1.7,0,3.2,0.8,3.9,1.9V8h3.9v16.9h-3.9
		v-1.8c-0.7,1.2-2.1,2-3.9,2C112.1,25.1,109.6,22.6,109.6,18.5L109.6,18.5z M119.2,18.6c0-2-1.3-3.2-2.8-3.2c-1.5,0-2.8,1.1-2.8,3.1
		c0,2,1.3,3.2,2.8,3.2C117.9,21.7,119.2,20.6,119.2,18.6z M131.8,20.2l2.9-8h4.2L131,31h-4.2l2.9-6.5l-5.2-12.3h4.4L131.8,20.2
		L131.8,20.2z"/>
	
		<linearGradient id="SVGID_00000057837614668306269340000007660510306942287530_" gradientUnits="userSpaceOnUse" x1="-216.0994" y1="424.363" x2="-214.5002" y2="424.7105" gradientTransform="matrix(28 0 0 -29 6056 12327.8047)">
		<stop  offset="0" style="stop-color:#E35C67"/>
		<stop  offset="1" style="stop-color:#A293FF"/>
	</linearGradient>
	
		<ellipse style="display:inline;fill:none;stroke:url(#SVGID_00000057837614668306269340000007660510306942287530_);stroke-width:4;" cx="22" cy="17.5" rx="14" ry="14.5"/>
	
		<linearGradient id="SVGID_00000117649803981886196440000014983853086319066250_" gradientUnits="userSpaceOnUse" x1="-217.2821" y1="419.8284" x2="-216.1316" y2="418.6757" gradientTransform="matrix(34.0001 0 0 -20.9996 7405.0254 8821.4922)">
		<stop  offset="0" style="stop-color:#E35C67"/>
		<stop  offset="1" style="stop-color:#A293FF"/>
	</linearGradient>
	
		<path style="display:inline;fill:none;stroke:url(#SVGID_00000117649803981886196440000014983853086319066250_);stroke-width:4;" d="
		M13,28.8c0.3-0.7,3.4-18.1,7.2-16.8c3.6,1.3-0.4,10.8,3.6,10.9c4,0.1,0.9-11.1,4.9-10.9C33.5,12.2,37,37,43.8,26.4
		c2.2-3.4,3-11.6,3.2-13.5c0.4-5.7-4.9-5.6-6-3.7c-0.8,1.4-1.6,7.3,5.5,7.3"/>
</g>
<image style="overflow:visible;" width="613" height="150" xlink:href="hasib.png"  transform="matrix(0.2512 0 0 0.2512 -5.2787 -1.1559)">
</image>
</svg>
